<?xml version="1.0" standalone="no"?>
<!DOCTYPE svg PUBLIC "-//W3C//DTD SVG 20010904//EN"
 "http://www.w3.org/TR/2001/REC-SVG-20010904/DTD/svg10.dtd">
<svg version="1.0" xmlns="http://www.w3.org/2000/svg"
 width="648.000000pt" height="648.000000pt" viewBox="0 0 648.000000 648.000000"
 preserveAspectRatio="xMidYMid meet">
<metadata>
Created by potrace 1.16, written by Peter Selinger 2001-2019
</metadata>
<g transform="translate(0.000000,648.000000) scale(0.100000,-0.100000)"
fill="#000000" stroke="none">
<path d="M4420 3843 l0 -393 -600 0 -600 0 0 390 0 390 -80 0 -80 0 0 -390 0
-390 -402 -2 -403 -3 0 -85 0 -85 183 -3 182 -2 -6 -28 c-3 -15 -21 -58 -40
-97 -164 -347 -600 -467 -918 -254 -191 128 -296 336 -283 565 14 256 173 466
425 562 60 23 82 26 202 27 116 0 145 -3 201 -23 82 -28 174 -83 234 -140 28
-26 50 -40 58 -35 7 4 38 29 69 57 l58 50 -43 44 c-91 94 -254 183 -398 217
-83 19 -265 19 -349 0 -295 -69 -528 -288 -610 -577 -27 -92 -37 -261 -21
-352 55 -315 274 -558 588 -652 113 -34 297 -38 408 -10 282 73 511 293 591
566 l22 75 126 3 126 3 2 -331 3 -330 78 101 77 102 0 228 0 229 390 0 390 0
0 -335 0 -335 85 0 85 0 0 335 0 335 125 0 125 0 0 -335 0 -335 85 0 85 0 0
335 0 335 165 0 165 0 0 90 0 90 -165 0 -165 0 0 305 0 305 253 0 252 0 94 83
c52 45 88 83 80 84 -8 1 -202 4 -431 6 l-418 4 0 -394z"/>
<path d="M4083 4102 l-83 -129 0 -226 0 -227 85 0 85 0 0 355 c0 195 -1 355
-2 355 -2 0 -40 -58 -85 -128z"/>
<path d="M2030 3720 c-19 -19 -20 -33 -20 -370 0 -333 1 -351 19 -369 40 -40
141 -39 177 0 18 20 19 42 19 369 0 412 6 390 -107 390 -55 0 -72 -4 -88 -20z"/>
<path d="M4970 3720 c-19 -19 -20 -33 -20 -369 0 -414 -5 -396 103 -396 50 0
70 4 86 19 21 19 21 26 21 376 0 416 7 390 -103 390 -54 0 -71 -4 -87 -20z"/>
<path d="M1880 3360 l0 -90 50 0 50 0 0 90 0 90 -50 0 -50 0 0 -90z"/>
<path d="M5190 3360 l0 -90 50 0 50 0 0 90 0 90 -50 0 -50 0 0 -90z"/>
<path d="M1344 2446 c-29 -29 -34 -41 -34 -81 0 -40 5 -52 34 -81 27 -27 42
-34 74 -34 56 0 102 39 102 86 l0 34 -50 0 c-38 0 -50 -4 -50 -15 0 -10 10
-15 30 -15 17 0 30 -4 30 -9 0 -19 -32 -41 -59 -41 -37 0 -63 31 -63 75 0 62
50 93 104 64 15 -8 23 -8 32 1 18 19 -29 50 -76 50 -32 0 -47 -7 -74 -34z"/>
<path d="M1598 2464 c-53 -28 -72 -98 -43 -154 21 -41 53 -60 103 -60 35 0 49
6 72 28 96 97 -14 251 -132 186z m99 -46 c48 -45 18 -128 -46 -128 -37 0 -61
31 -61 77 0 64 62 94 107 51z"/>
<path d="M1950 2364 l0 -116 56 4 c74 6 117 45 117 107 0 73 -55 121 -138 121
l-35 0 0 -116z"/>
<path d="M2157 2473 c-4 -3 -7 -55 -7 -115 l0 -108 65 0 c58 0 65 2 65 20 0
17 -7 20 -40 20 -36 0 -40 3 -40 24 0 21 5 25 37 28 27 2 39 8 41 21 3 14 -4
17 -37 17 -39 0 -41 2 -41 30 0 28 2 30 40 30 33 0 40 3 40 20 0 18 -7 20 -58
20 -32 0 -62 -3 -65 -7z"/>
<path d="M2310 2365 l0 -115 25 0 c24 0 25 2 25 73 l0 72 48 -72 c35 -54 53
-73 70 -73 22 0 22 2 22 116 0 114 0 115 -22 112 -21 -3 -23 -10 -28 -72 l-5
-69 -45 71 c-34 55 -50 72 -67 72 -23 0 -23 -2 -23 -115z"/>
<path d="M2610 2365 c0 -108 1 -115 20 -115 17 0 20 7 20 45 l0 45 45 0 45 0
0 -45 c0 -38 3 -45 20 -45 19 0 20 7 20 115 0 108 -1 115 -20 115 -17 0 -20
-7 -20 -51 l0 -50 -42 3 -43 3 -3 48 c-3 39 -6 47 -23 47 -18 0 -19 -8 -19
-115z"/>
<path d="M2820 2365 l0 -115 65 0 c58 0 65 2 65 20 0 17 -7 20 -45 20 -41 0
-45 2 -45 25 0 23 4 25 40 25 33 0 40 3 40 19 0 16 -8 20 -37 23 -33 3 -38 6
-38 28 0 22 5 25 43 28 34 3 43 7 40 20 -3 13 -16 18 -66 20 l-62 3 0 -116z"/>
<path d="M3046 2472 c-6 -10 -86 -211 -86 -217 0 -3 9 -5 20 -5 12 0 25 10 32
25 9 21 18 25 55 25 37 0 45 -4 53 -25 9 -24 50 -37 50 -16 0 6 -19 57 -42
115 -31 79 -46 106 -59 106 -10 0 -20 -3 -23 -8z"/>
<path d="M3490 2365 c0 -108 1 -115 20 -115 17 0 20 7 20 45 l0 45 45 0 45 0
0 -45 c0 -38 3 -45 20 -45 19 0 20 7 20 115 0 108 -1 115 -20 115 -17 0 -20
-7 -20 -51 l0 -50 -42 3 -43 3 -3 48 c-3 39 -6 47 -23 47 -18 0 -19 -8 -19
-115z"/>
<path d="M3816 2464 c-18 -18 -21 -47 -6 -74 8 -14 5 -21 -15 -34 -30 -20 -34
-65 -7 -89 22 -20 70 -22 107 -5 19 9 28 9 37 0 7 -7 23 -12 37 -12 l24 0 -23
25 c-23 24 -23 25 -5 45 17 18 17 20 1 26 -10 4 -22 2 -29 -5 -16 -16 -25 -14
-37 9 -8 15 -6 24 10 40 25 25 25 45 0 70 -24 24 -72 26 -94 4z"/>
<path d="M4070 2365 l0 -115 25 0 c23 0 25 4 25 45 0 45 0 45 35 45 28 0 35 4
35 20 0 16 -7 20 -35 20 -32 0 -35 2 -35 30 0 28 2 30 40 30 33 0 40 3 40 20
0 18 -7 20 -65 20 l-65 0 0 -115z"/>
<path d="M4460 2365 c0 -108 1 -115 20 -115 18 0 20 7 20 78 l0 77 51 -77 c34
-51 58 -78 70 -78 17 0 19 9 19 115 0 108 -1 115 -20 115 -18 0 -20 -7 -20
-77 l0 -78 -50 78 c-35 54 -55 77 -70 77 -19 0 -20 -6 -20 -115z"/>
<path d="M4680 2365 l0 -115 65 0 c58 0 65 2 65 20 0 17 -7 20 -40 20 -36 0
-40 3 -40 24 0 21 5 25 37 28 27 2 39 8 41 21 3 14 -4 17 -37 17 -39 0 -41 2
-41 30 0 28 2 30 40 30 33 0 40 3 40 20 0 18 -7 20 -65 20 l-65 0 0 -115z"/>
<path d="M4869 2459 c-32 -32 -22 -67 31 -104 25 -17 45 -38 45 -46 0 -17 -47
-24 -73 -10 -15 8 -23 7 -31 -3 -33 -39 99 -65 134 -26 38 42 21 81 -55 123
-39 21 -34 42 11 42 19 0 40 4 48 9 12 8 11 11 -4 23 -28 20 -82 16 -106 -8z"/>
<path d="M5052 2464 c-26 -18 -30 -65 -6 -89 9 -8 29 -22 45 -30 38 -20 40
-55 3 -55 -14 0 -34 4 -44 10 -13 7 -21 5 -30 -6 -31 -36 81 -61 128 -28 26
18 30 65 6 89 -9 8 -32 22 -51 30 -48 20 -42 50 9 50 45 0 59 12 34 31 -26 18
-66 18 -94 -2z"/>
</g>
</svg>
